<svg class="svg-icon" style="width: 1em;height: 1em;vertical-align: middle;fill: currentColor;overflow: hidden;" viewBox="0 0 1024 1024" version="1.1" xmlns="http://www.w3.org/2000/svg"><path d="M718.24 100.64V49.92A17.92 17.92 0 0 0 700.32 32H324.8a17.92 17.92 0 0 0-17.76 17.92v50.72H118.88A17.92 17.92 0 0 0 100.96 118.4l-0.96 855.68A18.08 18.08 0 0 0 118.08 992h291.84a34.08 34.08 0 0 0 34.08-34.24 34.24 34.24 0 0 0-34.24-34.24H187.68a17.92 17.92 0 0 1-17.76-17.92V187.68a17.92 17.92 0 0 1 17.92-17.92h119.68v50.72a17.92 17.92 0 0 0 17.92 17.92h374.88a17.92 17.92 0 0 0 17.92-17.92v-51.52h119.2a17.92 17.92 0 0 1 17.92 17.92v359.2a34.24 34.24 0 0 0 34.24 34.4 34.4 34.4 0 0 0 34.4-34.4V118.4a17.92 17.92 0 0 0-17.92-17.92z m-86.4 68.32h-238.4a17.92 17.92 0 0 1-17.92-17.92v-32a17.92 17.92 0 0 1 17.92-17.92h238.4a17.92 17.92 0 0 1 17.92 17.92v32a17.92 17.92 0 0 1-17.92 17.92z" fill="#4592D8" /><path d="M341.76 510.88h204.96a34.56 34.56 0 0 1 34.4 34.56 34.56 34.56 0 0 1-34.56 34.56h-204.8a34.88 34.88 0 0 1-34.72-34.88 34.72 34.72 0 0 1 34.72-34.24z m0-136.32h342.4a34.4 34.4 0 0 1 34.4 34.4 34.4 34.4 0 0 1-34.4 34.56H341.44a34.4 34.4 0 0 1-34.4-34.56 34.4 34.4 0 0 1 34.4-34.4z m445.12 411.68h102.72a34.08 34.08 0 0 1 34.4 34.08 34.24 34.24 0 0 1-34.24 34.24h-102.88v102.72A34.24 34.24 0 0 1 752 992a34.24 34.24 0 0 1-34.4-34.24v-103.52h-102.24a34.24 34.24 0 0 1-34.24-34.24 34.24 34.24 0 0 1 34.24-34.24h102.88V683.2A34.24 34.24 0 0 1 752 648.96a34.24 34.24 0 0 1 34.24 34.24zM341.6 648.8h67.68a34.4 34.4 0 0 1 34.72 34.56 34.4 34.4 0 0 1-34.24 34.56h-67.68a34.72 34.72 0 0 1-35.04-34.72 34.56 34.56 0 0 1 34.56-34.4z" fill="#4592D8" /></svg>