<svg class="svg-icon" style="width: 1em; height: 1em;vertical-align: middle;fill: currentColor;overflow: hidden;" viewBox="0 0 1024 1024" version="1.1" xmlns="http://www.w3.org/2000/svg"><path d="M991.940007 896.015998h-127.984002v127.984002h-127.984002v-127.984002H607.988001v-127.984002h127.984002v-127.984002h127.984002v127.984002h127.984002z m-511.936007-383.952006a255.968004 255.968004 0 1 1 255.968003-255.968004 255.968004 255.968004 0 0 1-255.968003 255.968004z m0-383.952006a127.984002 127.984002 0 1 0 127.984001 127.984002 127.984002 127.984002 0 0 0-127.984001-127.984002z m127.984001 447.944007v127.984002H320.023997a159.980002 159.980002 0 0 0-159.980002 159.980003v95.988001a63.992001 63.992001 0 0 1-127.984002 0v-95.988001a288.731909 288.731909 0 0 1 287.964004-287.964005z" fill="#8F9BB3" /></svg>